<?xml version="1.0" encoding="iso-8859-1"?>
<svg version="1.1" id="Capa_1" xmlns="http://www.w3.org/2000/svg" xmlns:xlink="http://www.w3.org/1999/xlink" x="0px" y="0px"
	 viewBox="0 0 511.969 511.969" style="enable-background:new 0 0 511.969 511.969;" xml:space="preserve" fill="#fac564">
<g>
	<g>
		<path d="M221.443,2.613c-1.073-0.479-2.239-0.712-3.413-0.683c-0.372-0.014-0.744,0.015-1.109,0.085
			c-1.678,0.217-3.253,0.93-4.523,2.048c-0.325,0.24-0.613,0.528-0.853,0.853c-0.581,0.622-1.044,1.345-1.365,2.133
			c-0.095,0.156-0.153,0.331-0.171,0.512l-18.432,42.496l-25.259,58.453c-0.171,0.427-0.341,0.853-0.512,1.365l-40.021,92.501
			l-0.939,2.133l-28.843,66.816L49.496,379.104c-0.171,0.427-0.341,0.768-0.512,1.195L8.366,474.165
			c-0.883,2.084-1.347,4.322-1.363,6.586c-0.067,9.491,7.573,17.24,17.064,17.307c2.344,0.009,4.666-0.455,6.827-1.365
			l149.845-64.768v-18.603L24.067,480.992l37.291-86.272l6.741-15.616l40.533-93.867l6.741-15.701l19.2-44.288l8.021-18.603
			l37.632-87.04l8.021-18.603l16.896-39.168l7.339-16.896L223.918,18.4l1.963-4.523C227.732,9.541,225.755,4.522,221.443,2.613z"/>
	</g>
</g>
<g>
	<g>
		<path d="M254.211,381.579c-0.844,0.35-1.623,0.84-2.304,1.451l-0.768,0.768c-1.383,1.549-2.143,3.556-2.133,5.632v0.085
			c-0.029,1.147,0.204,2.285,0.683,3.328c1.389,3.097,4.457,5.098,7.851,5.12c1.17-0.021,2.326-0.252,3.413-0.683l5.12-2.219
			l68.267-29.525v-18.603L254.211,381.579z"/>
	</g>
</g>
<g>
	<g>
		<path d="M502.36,283.702c-1.909-4.311-6.928-6.288-11.264-4.437l-4.608,1.963l-26.624,11.52L443.054,300l-23.723,10.24h-0.085
			l-11.52,5.035c-3.097,1.388-5.098,4.457-5.12,7.851c-0.03,1.174,0.203,2.341,0.683,3.413c1.388,3.097,4.457,5.098,7.851,5.12
			c1.17-0.021,2.326-0.252,3.413-0.683l5.12-2.219l35.157-15.19l43.093-18.603c0.322-0.153,0.636-0.324,0.939-0.512
			c0.085-0.085,0.085-0.085,0.171-0.085c0.682-0.472,1.311-1.016,1.877-1.621c0.064-0.128,0.151-0.244,0.256-0.341
			c0.633-0.822,1.124-1.745,1.451-2.73c0.006-0.065,0.037-0.126,0.085-0.171c0.085-0.427,0.171-0.853,0.256-1.365
			c0.071-0.337,0.099-0.68,0.085-1.024C503.073,285.94,502.84,284.774,502.36,283.702z"/>
	</g>
</g>
<g>
	<g>
		<path d="M503.062,224.652C485.855,84.439,358.242-15.276,218.03,1.931c-0.372-0.014-0.744,0.015-1.109,0.085
			c-1.678,0.217-3.253,0.93-4.523,2.048c-0.325,0.24-0.613,0.528-0.853,0.853c-0.581,0.622-1.044,1.345-1.365,2.133
			c-0.095,0.156-0.153,0.331-0.171,0.512c-0.509,1.272-0.685,2.652-0.512,4.011c0.007,0.061,0.015,0.123,0.024,0.184
			c0.657,4.608,4.925,7.812,9.533,7.155c1.621-0.171,3.243-0.427,4.864-0.512c16.849-1.791,33.84-1.782,50.687,0.025
			c131.081,14.061,225.944,131.721,211.883,262.802c-0.085,1.621-0.341,3.157-0.512,4.779c-0.558,4.681,2.751,8.94,7.424,9.557
			c0.341,0,0.768,0.085,1.109,0.085c1.531-0.001,3.034-0.414,4.352-1.195c0.085-0.085,0.085-0.085,0.171-0.085
			c0.682-0.472,1.311-1.016,1.877-1.621c0.064-0.128,0.151-0.244,0.256-0.341c0.633-0.822,1.124-1.745,1.451-2.73
			c0.006-0.065,0.037-0.126,0.085-0.171c0.085-0.427,0.171-0.853,0.256-1.365c0.071-0.337,0.099-0.68,0.085-1.024h0
			C505.601,266.373,505.608,245.395,503.062,224.652z"/>
	</g>
</g>
<g>
	<g>
		<path d="M459.864,292.746c-2.048-60.416-30.123-121.515-78.165-169.643c-48.043-47.957-109.141-76.117-169.216-78.165
			c-4.437-0.17-8.789-0.256-13.227-0.085c-3.339,0.077-6.318,2.119-7.595,5.205c-0.528,1.117-0.763,2.351-0.683,3.584
			c0.114,4.59,3.857,8.257,8.448,8.277h0.256c1.792-0.085,3.669-0.085,5.461-0.085c57.856,0,117.675,26.624,164.523,73.387
			C416.43,181.984,442.969,241.717,443.054,300c0,1.877,0,3.669-0.085,5.461c0,0.002,0,0.005,0,0.007
			c-0.116,4.687,3.59,8.581,8.278,8.697h0.256c1.115-0.013,2.217-0.245,3.243-0.683c3.145-1.219,5.237-4.222,5.291-7.595
			C460.12,301.536,460.12,297.099,459.864,292.746z"/>
	</g>
</g>
<g>
	<g>
		<path d="M252.683,162.862c-8.063-31.953-40.503-51.32-72.456-43.257l-37.632,87.04c2.65,4.808,5.984,9.206,9.899,13.056
			c0.093,0.093,0.186,0.187,0.279,0.279c23.328,23.174,61.026,23.049,84.201-0.279C251.861,204.847,257.829,183.253,252.683,162.862
			z"/>
	</g>
</g>
<g>
	<g>
		<path d="M140.888,203.317c-0.015-0.031-0.029-0.063-0.044-0.094c-2.017-4.227-7.078-6.019-11.305-4.002
			c-1.474,0.726-2.715,1.849-3.584,3.243c-1.534,2.441-1.727,5.492-0.512,8.107c2.449,5.238,5.514,10.166,9.131,14.677l8.021-18.603
			C141.998,205.536,141.4,204.427,140.888,203.317z"/>
	</g>
</g>
<g>
	<g>
		<path d="M171.267,104.417c-2.122,0.665-3.899,2.135-4.949,4.096c-0.171,0.427-0.341,0.853-0.512,1.365
			c-0.555,1.72-0.555,3.571,0,5.291c1.444,4.448,6.214,6.89,10.667,5.461c1.225-0.431,2.48-0.774,3.755-1.025l8.021-18.603
			C182.474,101.472,176.775,102.618,171.267,104.417z"/>
	</g>
</g>
<g>
	<g>
		<path d="M223.406,426.635c-4.713,0-8.533,3.82-8.533,8.533v50.176c0.192,4.393-2.732,8.316-6.997,9.387
			c-2.497,0.488-5.08-0.205-6.997-1.877c-1.939-1.596-3.066-3.974-3.072-6.485v-67.413c-0.022,3.394-2.023,6.462-5.12,7.851
			l-11.947,5.12v54.443c0.06,14.114,11.486,25.54,25.6,25.6c1.458,0.014,2.914-0.1,4.352-0.341
			c12.478-2.517,21.401-13.554,21.248-26.283v-50.176C231.939,430.455,228.119,426.635,223.406,426.635z"/>
	</g>
</g>
<g>
	<g>
		<path d="M265.39,386.076c-1.845-4.329-6.85-6.343-11.179-4.497c-0.844,0.35-1.623,0.84-2.304,1.451l-0.768,0.768
			c-1.383,1.549-2.143,3.556-2.133,5.632v54.272c-0.014,4.707-3.826,8.519-8.533,8.533c-4.528-0.051-8.25-3.587-8.533-8.107v-8.96
			c0-4.713-3.82-8.533-8.533-8.533s-8.533,3.82-8.533,8.533v9.216c0.372,10.551,7.131,19.812,17.067,23.381
			c2.726,1.033,5.619,1.554,8.533,1.536c14.121-0.041,25.559-11.479,25.6-25.6V389.43
			C266.074,388.277,265.842,387.136,265.39,386.076z"/>
	</g>
</g>
<g>
	<g>
		<path d="M377.006,349.835c-4.713,0-8.533,3.82-8.533,8.533v50.176c0.192,4.393-2.732,8.316-6.997,9.387
			c-2.497,0.488-5.08-0.205-6.997-1.877c-1.939-1.596-3.066-3.974-3.072-6.485v-57.003c-0.022,3.394-2.023,6.462-5.12,7.851
			l-11.947,5.12v44.032c0.06,14.114,11.486,25.54,25.6,25.6c1.458,0.014,2.914-0.1,4.352-0.341
			c12.478-2.517,21.401-13.554,21.248-26.283v-50.176C385.539,353.655,381.719,349.835,377.006,349.835z"/>
	</g>
</g>
<g>
	<g>
		<path d="M419.331,310.24h-0.085c-0.998-3.648-4.325-6.169-8.107-6.144c-4.707,0.014-8.52,3.826-8.533,8.533v54.272
			c-0.014,4.707-3.826,8.519-8.533,8.533c-4.528-0.052-8.25-3.587-8.533-8.107v-8.96c0-4.713-3.82-8.533-8.533-8.533
			s-8.533,3.82-8.533,8.533v9.216c0.372,10.551,7.131,19.812,17.067,23.381c2.726,1.033,5.619,1.554,8.533,1.536
			c14.121-0.041,25.559-11.479,25.6-25.6v-54.272C419.691,311.82,419.575,311.012,419.331,310.24z"/>
	</g>
</g>
<g>
	<g>
		<path d="M369.667,135.221C322.819,88.459,263,61.835,205.144,61.835l-16.896,39.168c42.269-3.574,79.433,27.795,83.007,70.064
			c3.574,42.269-27.795,79.433-70.064,83.007c-22.561,1.908-44.814-6.236-60.814-22.255c-2.068-2.068-4.006-4.263-5.803-6.571
			l-19.2,44.288c25.955,10.224,42.968,35.336,42.837,63.232c-0.05,37.682-30.585,68.217-68.267,68.267
			c-9.878,0.031-19.641-2.125-28.587-6.315l-37.291,86.272l156.672-67.669v-3.755c-0.014-4.707-3.826-8.519-8.533-8.533
			c-4.713,0-8.533-3.821-8.533-8.533c0-4.713,3.82-8.533,8.533-8.533c14.121,0.041,25.559,11.479,25.6,25.6v76.8
			c0.006,2.512,1.133,4.889,3.072,6.485c1.917,1.673,4.5,2.365,6.997,1.877c4.265-1.071,7.189-4.993,6.997-9.387v-50.176
			c0-4.713,3.82-8.533,8.533-8.533s8.533,3.82,8.533,8.533v8.96c0.283,4.52,4.005,8.055,8.533,8.107
			c4.707-0.014,8.519-3.826,8.533-8.533V389.43c-0.009-2.076,0.751-4.083,2.133-5.632l0.768-0.768
			c0.681-0.61,1.46-1.101,2.304-1.451l80.128-34.645v-14.165c-0.014-4.707-3.826-8.519-8.533-8.533c-4.713,0-8.533-3.82-8.533-8.533
			s3.821-8.533,8.533-8.533c14.121,0.041,25.559,11.479,25.6,25.6v76.8c0.006,2.512,1.133,4.889,3.072,6.485
			c1.917,1.673,4.5,2.365,6.997,1.877c4.265-1.071,7.189-4.993,6.997-9.387v-50.176c0-4.713,3.82-8.533,8.533-8.533
			s8.533,3.82,8.533,8.533v8.96c0.284,4.52,4.005,8.055,8.533,8.107c4.707-0.014,8.519-3.826,8.533-8.533v-54.272
			c0.014-4.707,3.826-8.52,8.533-8.533c3.782-0.025,7.109,2.496,8.107,6.144h0.085L443.054,300
			C442.969,241.717,416.43,181.984,369.667,135.221z M264.622,331.318c-13.337,13.373-34.991,13.402-48.364,0.065
			c-13.373-13.337-13.402-34.991-0.065-48.364s34.99-13.402,48.364-0.065c6.433,6.416,10.049,15.128,10.049,24.214
			C274.609,316.223,271.018,324.909,264.622,331.318z M380.334,276.363c-18.333,18.354-48.074,18.371-66.428,0.038
			c-18.354-18.333-18.371-48.074-0.038-66.428c18.333-18.354,48.074-18.371,66.428-0.038c8.821,8.81,13.777,20.766,13.777,33.233
			C394.114,255.624,389.166,267.579,380.334,276.363z"/>
	</g>
</g>
<g>
	<g>
		<path d="M252.607,295.239c-6.617-6.673-17.39-6.719-24.063-0.102c-6.673,6.617-6.719,17.39-0.102,24.063
			c6.71,6.485,17.353,6.485,24.064,0c3.232-3.167,5.048-7.506,5.035-12.032C257.526,302.698,255.754,298.413,252.607,295.239z"/>
	</g>
</g>
<g>
	<g>
		<path d="M368.213,222.002c-11.689-11.64-30.6-11.6-42.24,0.089c-11.64,11.689-11.6,30.6,0.089,42.24
			c11.794,11.264,30.36,11.264,42.154,0c5.657-5.585,8.825-13.213,8.789-21.163C377.006,235.224,373.842,227.607,368.213,222.002z"
			/>
	</g>
</g>
<g>
	<g>
		<path d="M108.632,285.237l-40.533,93.867c6.803,3.196,14.225,4.856,21.741,4.864c28.306,0.029,51.276-22.894,51.305-51.2
			C141.251,311.704,128.303,292.774,108.632,285.237z"/>
	</g>
</g>
<g>
	<g>
		<path d="M61.87,375.605c-0.037-0.025-0.074-0.05-0.112-0.074c-3.901-2.541-9.123-1.438-11.664,2.463
			c-0.232,0.351-0.432,0.722-0.597,1.109c-0.171,0.427-0.341,0.768-0.512,1.195c-1.077,3.584,0.35,7.449,3.499,9.472
			c2.814,1.896,5.783,3.552,8.875,4.949l6.741-15.616C65.95,378.073,63.869,376.904,61.87,375.605z"/>
	</g>
</g>
<g>
	<g>
		<path d="M105.816,266.464c-4.022-1.009-8.181,1.052-9.813,4.864c-0.181,0.471-0.324,0.956-0.427,1.451
			c-0.015,0.06-0.029,0.12-0.043,0.181c-1.022,4.533,1.824,9.037,6.357,10.059c2.303,0.559,4.557,1.301,6.741,2.219l6.741-15.701
			C112.28,268.245,109.083,267.217,105.816,266.464z"/>
	</g>
</g>
<g>
</g>
<g>
</g>
<g>
</g>
<g>
</g>
<g>
</g>
<g>
</g>
<g>
</g>
<g>
</g>
<g>
</g>
<g>
</g>
<g>
</g>
<g>
</g>
<g>
</g>
<g>
</g>
<g>
</g>
</svg>
